<svg preserveAspectRatio="xMidYMin meet"  xmlns="http://www.w3.org/2000/svg">
  <pattern id="p1" width="374" height="38" patternUnits="userSpaceOnUse"  >
    <path d="M56.5817 13.2363C47.0142 5.93697 31.8504 3.85799 19.1096 8.09879C12.9186 10.1595 6.60014 11.0319 0.0437823 11C0.0421006 18 0.0435025 30.5 0.0437823 38H375.043V11C369.867 10.7986 363.535 12.0152 359.496 14.8791C347.324 23.5095 335.06 19.1426 323.496 10.9207C315.721 5.39258 309.313 2.14149 298.613 4.04343L259.923 10.9207C251.702 12.3821 243.026 10.3427 237.686 5.69331C228.162 -2.59817 209.865 -1.68575 202.087 7.46855C191.142 20.349 173.338 17.8374 159.63 9.77127C150.532 4.4179 137.834 3.32879 127.186 6.98853L94.4174 18.2508C81.6186 22.6496 66.2503 20.6128 56.5817 13.2363Z"  fill="currentColor"/>
  </pattern>
    <rect width="100%" height="100%" fill="url(#p1)" />

</svg>
